<?xml version="1.0" standalone="no"?><!DOCTYPE svg PUBLIC "-//W3C//DTD SVG 1.1//EN" "http://www.w3.org/Graphics/SVG/1.1/DTD/svg11.dtd"><svg t="1755226287543" class="icon" viewBox="0 0 1024 1024" version="1.1" xmlns="http://www.w3.org/2000/svg" p-id="2399" xmlns:xlink="http://www.w3.org/1999/xlink" width="200" height="200"><path d="M729.326 573.12h130.83c41.392 0 75.258-38.32 75.258-85.14s-33.866-85.138-75.257-85.138h-563.18l-0.332 0.026v-24.37c0-55.777-24.062-46.639-60.078-16.817L102.69 458.927c-11.468 8.6-14.104 17.304-14.104 24.881 0 7.552 2.61 17.432 14.104 26.724l133.877 104.85c36.016 32.15 60.078 37.91 60.078-18.15V572.94l0.333 0.205h432.348zM916.83 755.94L782.953 651.09c-36.041-32.15-60.103-37.91-60.103 18.15v24.087H169.347c-41.392 0-75.258 38.32-75.258 85.138s33.866 85.139 75.258 85.139h553.528v24.343c0 55.778 24.062 46.64 60.104 16.818l133.877-97.246c11.493-8.601 14.335-19.992 14.335-24.753s-2.867-17.56-14.36-26.827z" fill="#EC932A" p-id="2400"></path><path d="M512.742 394.497a212.462 212.462 0 0 1-81.273-16.1v580.252c0 36.093 37.962 65.351 80.531 65.351 42.595-0.026 80.53-29.284 80.53-65.377V378.831a211.592 211.592 0 0 1-79.788 15.666zM512 995.356a33.098 33.098 0 0 1 0-66.196 33.533 33.533 0 0 1 30.64 20.657c0.18 0.461 0.282 0.947 0.436 1.408a30.769 30.769 0 0 1 2.022 11.007 34.199 34.199 0 0 1-1.715 10.086v-0.026A33.021 33.021 0 0 1 512 995.356z" fill="#D2D3D8" p-id="2401"></path><path d="M431.47 261.593v116.778a212.386 212.386 0 0 0 161.06 0.46V261.593H431.47z" fill="#B9BCC6" p-id="2402"></path><path d="M512.742 378.78c102.29 0 187.53-72.032 208.418-168.05 0.205-0.998 0.64-1.92 0.794-2.944 1.024-4.94 0.921-10.213 1.561-15.282A220.91 220.91 0 0 0 659.88 13.191c-17.125-17.15-62.792-22.398-62.792 15.36v113.244s-12.082 56.623-87.596 56.623c-75.488 0-87.57-56.623-87.57-56.623V28.499c0-37.731-40.419-32.381-57.442-15.333a221.422 221.422 0 0 0-65.095 150.438c0 0.384-0.102 0.692-0.102 1.076-0.026 1.484 0.358 2.943 0.358 4.454 2.074 116.06 96.504 209.646 213.102 209.646z" fill="#D2D3D8" p-id="2403"></path><path d="M540.542 877.068a28.542 28.542 0 1 1-57.084 0V474.772a28.542 28.542 0 1 1 57.084 0v402.296z" fill="#908E85" p-id="2404"></path></svg>